<svg id="Layer_1" data-name="Layer 1" xmlns="http://www.w3.org/2000/svg" viewBox="0 0 1121.67 221.68"><defs><style>.cls-1{fill:#fff;fill-rule:evenodd;}</style></defs><title>logo_wordmark_no_blendlogo_wordmark_horizontal_white</title><path class="cls-1" d="M42.71,136.21Zm0,6.82Zm6.82,0Zm0-6.82Zm-3.42-1.41a4.78,4.78,0,1,0,3.4,1.39A4.81,4.81,0,0,0,46.11,134.82Z"/><path class="cls-1" d="M93.82,107.42Zm0,6.83Zm6.82,0Zm0-6.82ZM97.22,106a4.81,4.81,0,1,0,0,9.62,4.82,4.82,0,0,0,3.4-8.23A4.82,4.82,0,0,0,97.22,106Z"/><path class="cls-1" d="M142.45,78.63Zm0,6.82Zm6.82,0Zm0-6.84a4.85,4.85,0,1,0,1.41,3.42A4.82,4.82,0,0,0,149.25,78.63Z"/><path class="cls-1" d="M144,27.71,96,0l16.26,40.07,25.3,32.86a12.3,12.3,0,0,1,17,.41,12.08,12.08,0,0,1,2,2.54L192,55.42Z"/><polygon class="cls-1" points="95.99 0 53.61 24.47 46.12 28.79 3.75 53.26 68.16 55.41 95.98 48.94 137.55 72.93 114.7 32.84 95.99 0"/><polygon class="cls-1" points="95.98 48.94 3.75 53.26 42.93 75.88 46.12 77.72 88.49 53.26 95.98 48.94"/><path class="cls-1" d="M192,161.92,126,82.86,96,57.58,53.61,82l34.85,20.13c9-9,24-.1,20.66,11.92l28.4,16.4,15.83,9.14Z"/><path class="cls-1" d="M192,113,154.14,91.16c-8.85,8.08-22.89-.08-20.34-11.74l-7.24-4.18L96,57.58l96,104.34Z"/><polygon class="cls-1" points="188.22 168.43 149.03 145.8 145.84 143.96 103.48 168.42 95.97 172.75 142.23 175.76 188.22 168.43"/><path class="cls-1" d="M105,120.39a12.35,12.35,0,0,1-20.14-9.55,12.9,12.9,0,0,1,.16-2L67.22,98.57,38.62,82.05,0,59.76l35.64,52.12L96,164.1l42.36-24.46Z"/><path class="cls-1" d="M96,164.1,0,59.76v48.92l37.82,21.83a12.33,12.33,0,0,1,20.62,9.12,12,12,0,0,1-.28,2.63L70.7,149.5Z"/><polygon class="cls-1" points="188.22 168.43 95.97 172.75 66.68 155.84 54.4 148.75 65.55 185.93 96.39 221.45 138.35 197.22 145.85 192.89 188.22 168.43"/><path class="cls-1" d="M54.4,148.75a12.35,12.35,0,0,1-19-2.95L0,166.22l0,0,96,55.42.39-.23Z"/><path class="cls-1" d="M322.78,88a10.16,10.16,0,0,1,4.1-8.14q4.11-3.36,11.5-3.35a35.14,35.14,0,0,1,13,2.53,58.43,58.43,0,0,1,13,7.31l9-12.72a56.13,56.13,0,0,0-15.8-9,54.85,54.85,0,0,0-18.94-3.07,41.57,41.57,0,0,0-13.11,2,29.6,29.6,0,0,0-10.28,5.68,26.86,26.86,0,0,0-6.73,8.82,26.36,26.36,0,0,0-2.44,11.42,27.39,27.39,0,0,0,2.12,11.36,21.87,21.87,0,0,0,6.18,7.93,34.72,34.72,0,0,0,10,5.47,116,116,0,0,0,13.66,4A112.56,112.56,0,0,1,349,121.37a28.27,28.27,0,0,1,6.59,3.22,9.33,9.33,0,0,1,3.29,3.76,11.65,11.65,0,0,1,.88,4.65,10.38,10.38,0,0,1-4.58,8.9q-4.58,3.27-12.38,3.28A38.82,38.82,0,0,1,326.61,142a58.81,58.81,0,0,1-14.09-9.23l-10.12,12a57.82,57.82,0,0,0,18.74,11.56,60.53,60.53,0,0,0,21.2,3.76,47.21,47.21,0,0,0,13.82-1.92,30.66,30.66,0,0,0,10.74-5.61,26.07,26.07,0,0,0,7-9,28.51,28.51,0,0,0,2.51-12.18,25.52,25.52,0,0,0-2-10.46,22.4,22.4,0,0,0-5.83-7.8,33.46,33.46,0,0,0-9.67-5.68,108.74,108.74,0,0,0-13.37-4.24c-4.58-1.09-8.34-2.14-11.33-3.15a28.11,28.11,0,0,1-7-3.28,10,10,0,0,1-3.49-3.83,11.54,11.54,0,0,1-1-4.92Zm164.79,41.17L436.39,63H420.82v95.76h16.69V90.59l52.69,68.13h14.07V63h-16.7v66.21ZM603,62.28h-15.6l-42.13,96.44h17.23l9.86-23.12h45.27l9.72,23.12h17.78L603,62.28Zm8.48,58.41h-33l16.41-38.3,16.56,38.3ZM760.25,95.11a33.37,33.37,0,0,0-2.52-13.27,28.73,28.73,0,0,0-7.26-10.12A32,32,0,0,0,739,65.22,47.53,47.53,0,0,0,723.87,63H686.11v95.76H702.8V127.94h19.06a51.18,51.18,0,0,0,15-2.12A37,37,0,0,0,749,119.6a29.69,29.69,0,0,0,8.23-10.26,32.13,32.13,0,0,0,3-14.23Zm-17.09.34A15.65,15.65,0,0,1,737.59,108q-5.54,4.74-15.16,4.74H702.8V78.15h19.63c6.32,0,11.36,1.43,15.1,4.33s5.63,7.2,5.63,13Zm124.16,63.27v-6.43H811.1V63H804v95.76Zm133.75,0-44.6-96.44h-6.84L905,158.72h7.39l12.18-26.81h56.49l12.18,26.81Zm-23-33.24H927.61l25.3-55.4,25.17,55.4Zm143.59,7.16v-.28a20.08,20.08,0,0,0-1.77-8.66,22.33,22.33,0,0,0-4.7-6.57,26,26,0,0,0-6.91-4.63,48.06,48.06,0,0,0-8.18-2.93,42.39,42.39,0,0,0,5.79-3.08,22.35,22.35,0,0,0,9-11,23.85,23.85,0,0,0,1.44-8.64v-.27a20.92,20.92,0,0,0-2.26-9.74,22,22,0,0,0-6.27-7.45,28.85,28.85,0,0,0-9.76-4.75,46.34,46.34,0,0,0-12.7-1.64h-39.46v95.76h41.52a50.29,50.29,0,0,0,14.06-1.84,34.79,34.79,0,0,0,10.79-5.18,23.11,23.11,0,0,0,7-8.21,23.63,23.63,0,0,0,2.46-10.85Zm-12.44-45.19a18.91,18.91,0,0,1-1.85,8.53,17.17,17.17,0,0,1-5.13,6.2,23.84,23.84,0,0,1-7.8,3.8,35.34,35.34,0,0,1-9.85,1.31H1053V69.39h32.29q11.63,0,17.78,4.91a15.63,15.63,0,0,1,6.16,12.88v.27Zm5.33,45.21a16.81,16.81,0,0,1-7.25,14.34q-7.24,5.3-19.56,5.29H1053V113.71h32.42q14.24,0,21.69,4.88a15.54,15.54,0,0,1,7.45,13.8Z"/></svg>