<?xml version="1.0" encoding="utf-8"?>
<!-- Generator: Adobe Illustrator 16.0.4, SVG Export Plug-In . SVG Version: 6.00 Build 0)  -->
<!DOCTYPE svg PUBLIC "-//W3C//DTD SVG 1.1//EN" "http://www.w3.org/Graphics/SVG/1.1/DTD/svg11.dtd">
<svg version="1.1" id="Layer_1" xmlns="http://www.w3.org/2000/svg" xmlns:xlink="http://www.w3.org/1999/xlink" x="0px" y="0px"
	 width="1121.674px" height="221.685px" viewBox="0 0 1121.674 221.685" enable-background="new 0 0 1121.674 221.685"
	 xml:space="preserve">
<g>
	<path fill-rule="evenodd" clip-rule="evenodd" fill="#142B5E" d="M42.706,136.213L42.706,136.213L42.706,136.213z M42.691,143.034
		L42.691,143.034L42.691,143.034z M49.512,143.05L49.512,143.05L49.512,143.05z M49.527,136.228L49.527,136.228L49.527,136.228z
		 M46.109,134.818c-1.332,0-2.535,0.534-3.418,1.409c-0.861,0.869-1.395,2.073-1.395,3.403c0,1.331,0.533,2.535,1.409,3.419
		c0.868,0.859,2.071,1.395,3.403,1.395c1.33,0,2.535-0.535,3.418-1.41c0.861-0.868,1.395-2.072,1.395-3.403
		c0-1.33-0.533-2.534-1.41-3.418C48.645,135.353,47.439,134.818,46.109,134.818z"/>
	<path fill-rule="evenodd" clip-rule="evenodd" fill="#008042" d="M93.816,107.423L93.816,107.423L93.816,107.423z M93.801,114.245
		L93.801,114.245L93.801,114.245z M100.622,114.26L100.622,114.26L100.622,114.26z M100.638,107.438L100.638,107.438
		L100.638,107.438z M97.219,106.028c-1.331,0-2.535,0.535-3.418,1.41c-0.86,0.868-1.395,2.073-1.395,3.402
		c0,1.332,0.534,2.535,1.41,3.419c0.867,0.86,2.071,1.395,3.402,1.395c1.33,0,2.535-0.534,3.419-1.409
		c0.86-0.869,1.395-2.072,1.395-3.404c0-1.329-0.534-2.534-1.41-3.418C99.754,106.563,98.549,106.028,97.219,106.028z"/>
	<path fill-rule="evenodd" clip-rule="evenodd" fill="#F0A71F" d="M142.445,78.63L142.445,78.63L142.445,78.63z M142.43,85.45
		L142.43,85.45L142.43,85.45z M149.251,85.466L149.251,85.466L149.251,85.466z M149.251,78.63c-0.868-0.861-2.073-1.396-3.403-1.396
		c-1.331,0-2.534,0.534-3.418,1.41c-0.86,0.868-1.395,2.073-1.395,3.403c0,1.331,0.534,2.535,1.41,3.418
		c0.868,0.86,2.071,1.395,3.402,1.395c1.33,0,2.535-0.534,3.419-1.41c0.86-0.867,1.395-2.071,1.395-3.402
		C150.661,80.718,150.127,79.513,149.251,78.63z"/>
	<path fill-rule="evenodd" clip-rule="evenodd" fill="#C22025" d="M143.971,27.708L95.986,0l16.266,40.067l25.298,32.866
		c2.193-1.999,5.105-3.222,8.298-3.222c3.395,0,6.476,1.383,8.724,3.628c0.755,0.755,1.411,1.608,1.951,2.538l35.436-20.459
		L143.971,27.708z"/>
	<polygon fill-rule="evenodd" clip-rule="evenodd" fill="#E61C40" points="95.986,0 53.605,24.469 46.117,28.792 3.746,53.255 
		68.163,55.412 95.982,48.935 137.55,72.934 114.698,32.835 	"/>
	<polygon fill-rule="evenodd" clip-rule="evenodd" fill="#EE2B52" points="95.982,48.935 3.746,53.255 42.932,75.879 46.12,77.72 
		88.492,53.258 	"/>
	<path fill-rule="evenodd" clip-rule="evenodd" fill="#F5B61A" d="M191.958,161.921l-65.926-79.065L95.979,57.582L53.607,82.044
		l34.854,20.125c9.039-9.039,23.956-0.104,20.657,11.926l28.402,16.396l15.826,9.139L191.958,161.921z"/>
	<path fill-rule="evenodd" clip-rule="evenodd" fill="#F0A71F" d="M191.958,112.995l-37.814-21.832
		c-8.858,8.072-22.892-0.084-20.348-11.748l-7.235-4.178L95.979,57.582l95.979,104.339V112.995z"/>
	<polygon fill-rule="evenodd" clip-rule="evenodd" fill="#142B5E" points="188.217,168.425 149.031,145.802 145.844,143.961 
		103.477,168.421 95.973,172.751 142.229,175.757 	"/>
	<path fill-rule="evenodd" clip-rule="evenodd" fill="#00A44C" d="M105.016,120.39c-2.128,1.74-4.844,2.787-7.797,2.787
		c-3.395,0-6.475-1.383-8.723-3.627c-2.229-2.232-3.612-5.312-3.612-8.709c0-0.674,0.054-1.337,0.159-1.982L67.219,98.565
		L38.617,82.052L0,59.756l35.645,52.127l60.342,52.214l42.366-24.458L105.016,120.39z"/>
	<path fill-rule="evenodd" clip-rule="evenodd" fill="#008042" d="M95.986,164.097L0,59.756v48.924l37.816,21.833
		c2.192-1.996,5.104-3.217,8.293-3.217c3.395,0,6.475,1.383,8.723,3.627c2.23,2.232,3.612,5.314,3.612,8.708
		c0,0.901-0.098,1.781-0.282,2.628l12.539,7.238L95.986,164.097z"/>
	<polygon fill-rule="evenodd" clip-rule="evenodd" fill="#0B3982" points="188.217,168.425 95.973,172.751 66.677,155.837 
		54.4,148.751 65.549,185.933 96.385,221.454 138.353,197.22 145.854,192.888 	"/>
	<path fill-rule="evenodd" clip-rule="evenodd" fill="#174797" d="M54.4,148.751c-6.338,5.77-15.328,3.241-18.992-2.947
		L0.045,166.22L0,166.265l95.986,55.42l0.398-0.23L54.4,148.751z"/>
</g>
<path fill-rule="evenodd" clip-rule="evenodd" fill="#061924" d="M322.781,87.996c0-3.192,1.367-5.903,4.102-8.139
	c2.738-2.235,6.567-3.35,11.492-3.35c4.378,0,8.71,0.84,12.996,2.527c4.286,1.688,8.617,4.125,12.995,7.319l9.028-12.721
	c-4.924-3.921-10.189-6.909-15.8-8.963c-5.608-2.05-11.926-3.075-18.945-3.075c-4.744,0-9.12,0.661-13.109,1.983
	c-4.014,1.32-7.434,3.214-10.283,5.678c-2.852,2.46-5.083,5.402-6.726,8.822c-1.62,3.42-2.439,7.227-2.439,11.422
	c0,4.47,0.706,8.254,2.12,11.354c1.414,3.1,3.488,5.745,6.179,7.936c2.691,2.187,6.041,4.012,10.009,5.472
	c3.989,1.459,8.525,2.778,13.656,3.964c4.47,1.097,8.093,2.146,10.897,3.147c2.783,1.005,4.972,2.074,6.59,3.216
	c1.598,1.138,2.689,2.394,3.282,3.763c0.594,1.368,0.889,2.916,0.889,4.648c0,3.742-1.525,6.705-4.581,8.895
	c-3.054,2.189-7.183,3.28-12.38,3.28c-6.019,0-11.4-1.071-16.142-3.212c-4.743-2.145-9.438-5.221-14.091-9.235l-10.122,12.038
	c5.745,5.2,11.992,9.051,18.74,11.561c6.749,2.506,13.815,3.761,21.204,3.761c5.015,0,9.621-0.64,13.816-1.916
	c4.171-1.277,7.775-3.145,10.737-5.608c2.987-2.462,5.313-5.47,6.999-9.025c1.667-3.559,2.51-7.615,2.51-12.18
	c0-4.01-0.661-7.499-1.984-10.461c-1.323-2.966-3.283-5.563-5.836-7.799c-2.556-2.236-5.791-4.125-9.666-5.676
	c-3.878-1.553-8.346-2.967-13.364-4.24c-4.581-1.095-8.342-2.145-11.33-3.148c-2.962-1.004-5.288-2.099-6.998-3.284
	c-1.687-1.183-2.851-2.46-3.489-3.828C323.101,91.553,322.781,89.913,322.781,87.996L322.781,87.996z M487.574,129.174
	l-51.183-66.21h-15.574v95.756h16.691V90.594l52.688,68.126h14.068V62.964h-16.691V129.174L487.574,129.174z M602.985,62.28h-15.594
	l-42.133,96.439h17.235l9.852-23.117h45.277l9.713,23.117h17.784L602.985,62.28L602.985,62.28z M611.468,120.691H578.5
	l16.413-38.302L611.468,120.691L611.468,120.691z M760.255,95.111c0-4.928-0.842-9.35-2.529-13.27
	c-1.687-3.924-4.104-7.297-7.251-10.125c-3.146-2.825-6.977-4.992-11.489-6.498c-4.515-1.505-9.553-2.255-15.118-2.255h-37.753
	v95.756h16.687v-30.778h19.062c5.312,0,10.282-0.706,14.956-2.121c4.65-1.415,8.711-3.487,12.198-6.224
	c3.466-2.737,6.201-6.156,8.23-10.259C759.255,105.231,760.255,100.49,760.255,95.111L760.255,95.111z M743.155,95.454
	c0,5.219-1.845,9.413-5.562,12.562c-3.693,3.166-8.754,4.74-15.161,4.74h-19.632v-34.61h19.632c6.314,0,11.354,1.438,15.093,4.334
	C741.287,85.352,743.155,89.685,743.155,95.454L743.155,95.454z M867.324,158.72v-6.429h-56.224V62.964h-7.114v95.756H867.324
	L867.324,158.72z M1001.065,158.72L956.468,62.28h-6.839l-44.595,96.439h7.385l12.177-26.812h56.497l12.174,26.812H1001.065
	L1001.065,158.72z M978.084,125.478h-50.479l25.307-55.4L978.084,125.478L978.084,125.478z M1121.674,132.637v-0.272
	c0-3.281-0.593-6.156-1.778-8.662c-1.186-2.509-2.76-4.699-4.695-6.57c-1.961-1.865-4.267-3.395-6.91-4.627
	c-2.644-1.231-5.379-2.208-8.184-2.939c1.916-0.82,3.831-1.848,5.791-3.078c1.961-1.233,3.717-2.78,5.266-4.604
	c1.527-1.826,2.78-3.97,3.738-6.429c0.959-2.488,1.438-5.361,1.438-8.644v-0.273c0-3.554-0.753-6.817-2.258-9.736
	c-1.505-2.917-3.602-5.403-6.27-7.452c-2.689-2.076-5.95-3.651-9.758-4.746c-3.831-1.091-8.069-1.639-12.699-1.639h-39.466v95.756
	h41.518c5.176,0,9.871-0.615,14.067-1.845c4.173-1.232,7.775-2.965,10.784-5.178c3.009-2.232,5.313-4.97,6.953-8.208
	C1120.852,140.253,1121.674,136.651,1121.674,132.637L1121.674,132.637z M1109.227,87.449c0,3.214-0.616,6.064-1.848,8.528
	c-1.231,2.484-2.941,4.559-5.131,6.2c-2.189,1.663-4.788,2.919-7.797,3.807c-3.011,0.868-6.293,1.301-9.849,1.301h-31.6V69.393
	h32.283c7.751,0,13.679,1.64,17.784,4.902c4.104,3.258,6.156,7.547,6.156,12.882V87.449L1109.227,87.449z M1114.56,132.661
	c0,6.041-2.416,10.828-7.249,14.341c-4.834,3.532-11.354,5.289-19.562,5.289h-34.745v-38.577h32.42
	c9.483,0,16.712,1.62,21.684,4.878c4.969,3.24,7.453,7.845,7.453,13.794V132.661z"/>
</svg>
