<svg id="Layer_1" data-name="Layer 1" xmlns="http://www.w3.org/2000/svg" viewBox="0 0 491.05 446.84"><defs><style>.cls-1{fill:#142b5e;}.cls-1,.cls-10,.cls-11,.cls-2,.cls-3,.cls-4,.cls-5,.cls-6,.cls-7,.cls-8,.cls-9{fill-rule:evenodd;}.cls-2{fill:#008042;}.cls-3{fill:#f0a71f;}.cls-4{fill:#c22025;}.cls-5{fill:#e61c40;}.cls-6{fill:#ee2b52;}.cls-7{fill:#f5b61a;}.cls-8{fill:#00a44c;}.cls-9{fill:#0b3982;}.cls-10{fill:#174797;}.cls-11{fill:#061924;}</style></defs><title>logo_wordmark_no_blendArtboard 5</title><path class="cls-1" d="M162.75,211.65Zm0,10.6Zm10.6,0Zm0-10.6ZM168,209.48a7.44,7.44,0,1,0,5.28,2.17A7.54,7.54,0,0,0,168,209.48Z"/><path class="cls-2" d="M242.16,166.92Zm0,10.6Zm10.6,0Zm0-10.6Zm-5.31-2.19a7.44,7.44,0,1,0,5.29,2.17A7.5,7.5,0,0,0,247.45,164.75Z"/><path class="cls-3" d="M317.72,122.18Zm0,10.59Zm10.6,0Zm0-10.62a7.52,7.52,0,1,0,2.19,5.31A7.48,7.48,0,0,0,328.3,122.18Z"/><path class="cls-4" d="M320.09,43.05,245.53,0l25.28,62.26,39.31,51.07a19.1,19.1,0,0,1,26.45.63,19.4,19.4,0,0,1,3,3.94l55.06-31.79Z"/><polygon class="cls-5" points="245.53 0 179.68 38.02 168.05 44.74 102.21 82.75 202.3 86.1 245.53 76.03 310.12 113.33 274.61 51.02 245.53 0"/><polygon class="cls-6" points="245.53 76.03 102.21 82.75 163.1 117.9 168.05 120.76 233.89 82.75 245.53 76.03"/><path class="cls-7" d="M394.66,251.6,292.22,128.74l-46.7-39.27-65.83,38,54.15,31.27c14-14,37.23-.16,32.1,18.53l44.13,25.48L334.66,217Z"/><path class="cls-3" d="M394.66,175.57,335.9,141.65c-13.76,12.54-35.57-.13-31.62-18.25L293,116.9,245.52,89.47,394.66,251.6Z"/><polygon class="cls-1" points="388.84 261.7 327.96 226.55 323 223.69 257.17 261.69 245.51 268.42 317.39 273.09 388.84 261.7"/><path class="cls-8" d="M259.56,187.06a19.17,19.17,0,0,1-31.28-14.83,19.49,19.49,0,0,1,.25-3.08l-27.69-16-44.45-25.66-60-34.64,55.38,81L245.53,255l65.83-38Z"/><path class="cls-2" d="M245.53,255,96.39,92.85v76l58.76,33.92a19.16,19.16,0,0,1,31.61,18.26l19.49,11.24Z"/><polygon class="cls-9" points="388.84 261.7 245.51 268.42 199.99 242.14 180.92 231.13 198.24 288.9 246.15 344.1 311.36 306.44 323.02 299.71 388.84 261.7"/><path class="cls-10" d="M180.92,231.13c-9.85,9-23.82,5-29.51-4.58L96.46,258.28l-.07.06,149.14,86.12.62-.36Z"/><path class="cls-11" d="M12.22,403.63a6.09,6.09,0,0,1,2.46-4.88,10.58,10.58,0,0,1,6.88-2,21.12,21.12,0,0,1,7.79,1.52,35.12,35.12,0,0,1,7.79,4.38L42.55,395a33.65,33.65,0,0,0-9.47-5.37,32.83,32.83,0,0,0-11.35-1.85A24.92,24.92,0,0,0,13.87,389a17.6,17.6,0,0,0-6.16,3.41,15.62,15.62,0,0,0-5.5,12.13,16.49,16.49,0,0,0,1.27,6.81,13.18,13.18,0,0,0,3.71,4.75,20.72,20.72,0,0,0,6,3.28,68.37,68.37,0,0,0,8.18,2.38,66.59,66.59,0,0,1,6.53,1.88,17.29,17.29,0,0,1,4,1.93,5.5,5.5,0,0,1,2,2.26,6.83,6.83,0,0,1,.53,2.78,6.21,6.21,0,0,1-2.74,5.33,12.46,12.46,0,0,1-7.42,2A23.17,23.17,0,0,1,14.51,436a35,35,0,0,1-8.44-5.53L0,437.65a34.58,34.58,0,0,0,11.23,6.93,36.05,36.05,0,0,0,12.71,2.26,28.47,28.47,0,0,0,8.28-1.15,18.6,18.6,0,0,0,6.44-3.36,15.57,15.57,0,0,0,4.19-5.41,17,17,0,0,0,1.51-7.3,15.28,15.28,0,0,0-1.19-6.27,13.46,13.46,0,0,0-3.5-4.68,20,20,0,0,0-5.79-3.4,63.92,63.92,0,0,0-8-2.54c-2.75-.66-5-1.29-6.79-1.89a16.7,16.7,0,0,1-4.2-2,5.93,5.93,0,0,1-2.09-2.29,7,7,0,0,1-.57-2.95ZM111,428.31,80.31,388.62H71V446H81V405.19L112.56,446H121v-57.4H111v39.69Zm69.17-40.1h-9.34L145.56,446h10.33l5.91-13.86h27.14L194.76,446h10.66l-25.26-57.81Zm5.09,35H165.49l9.83-23,9.93,23Zm89.17-15.33a20,20,0,0,0-1.51-7.95,17.2,17.2,0,0,0-4.35-6.07,19.27,19.27,0,0,0-6.88-3.89,28.35,28.35,0,0,0-9.06-1.36H230V446h10V427.57h11.42a30.68,30.68,0,0,0,9-1.27,22.25,22.25,0,0,0,7.31-3.73,17.6,17.6,0,0,0,4.93-6.15,19.22,19.22,0,0,0,1.8-8.53Zm-10.24.21a9.37,9.37,0,0,1-3.34,7.53c-2.21,1.9-5.25,2.84-9.09,2.84H240V397.72h11.76q5.69,0,9.05,2.6c2.26,1.72,3.38,4.32,3.38,7.78ZM338.6,446v-3.86H304.9V388.62h-4.26V446Zm80.16,0L392,388.21h-4.1L361.2,446h4.43L372.92,430h33.87L414.08,446ZM405,426.09H374.73l15.17-33.2L405,426.09Zm86.07,4.29v-.16A12,12,0,0,0,490,425a13.41,13.41,0,0,0-2.81-3.94,15.46,15.46,0,0,0-4.14-2.77,28.21,28.21,0,0,0-4.91-1.76,25.49,25.49,0,0,0,3.47-1.85,13.79,13.79,0,0,0,3.16-2.76A14,14,0,0,0,487,408.1a14.46,14.46,0,0,0,.86-5.18v-.17a12.58,12.58,0,0,0-1.35-5.83,13.34,13.34,0,0,0-3.76-4.47,17.25,17.25,0,0,0-5.85-2.84,27.55,27.55,0,0,0-7.61-1H445.62V446h24.89a29.87,29.87,0,0,0,8.43-1.11,20.85,20.85,0,0,0,6.46-3.1,13.77,13.77,0,0,0,4.17-4.92,14.21,14.21,0,0,0,1.48-6.51Zm-7.46-27.08a11.24,11.24,0,0,1-1.11,5.11,10.3,10.3,0,0,1-3.08,3.72,14.43,14.43,0,0,1-4.67,2.28,21.21,21.21,0,0,1-5.9.78H449.89V392.48h19.35q7,0,10.66,2.94a9.36,9.36,0,0,1,3.69,7.72v.16Zm3.19,27.1a10.07,10.07,0,0,1-4.34,8.59q-4.35,3.18-11.73,3.17H449.89V419h19.43q8.52,0,13,2.93a9.32,9.32,0,0,1,4.46,8.26Z"/></svg>